<svg width="21" height="32" viewBox="0 0 21 32" fill="none" xmlns="http://www.w3.org/2000/svg">
<path opacity="0.4" d="M9.51664 6.51742C12.1104 4.54458 15.527 1.35046 16.9111 0C21.2341 7.51559 10.825 11.5082 7.8103 15.0312C9.89592 14.5615 14.5108 13.5985 16.2855 13.5046C18.5039 13.3871 20.2672 14.3853 20.2672 16.2642C20.2672 18.1431 16.5699 20.5504 13.1571 23.6624C10.4268 26.1519 13.2708 30.2581 15.0341 32C5.25066 28.477 8.15158 21.8813 10.825 19.0238C3.94241 21.1963 1.21205 20.3743 0.757006 16.2642C0.30196 12.1541 6.27444 8.98348 9.51664 6.51742Z" fill="white"/>
<path d="M15.0332 32.0001C5.2497 28.4771 8.15061 21.8814 10.824 19.0239C12.8148 16.896 19.0604 13.6926 16.2846 13.5047C18.5029 13.3872 20.2662 14.3854 20.2662 16.2643C20.2662 18.1432 16.569 20.5505 13.1561 23.6625C10.4258 26.152 13.2699 30.2582 15.0332 32.0001Z" fill="white"/>
<path d="M9.51664 6.51742C12.1104 4.54458 15.527 1.35046 16.9111 0C20.3034 4.40724 16.2286 8.80733 11.3369 12.1541C6.44516 15.5009 2.83463 19.262 5.81947 20.1529C1.67855 20.5395 0.952026 18.0257 0.757006 16.2642C0.30196 12.1541 6.27444 8.98348 9.51664 6.51742Z" fill="white"/>
</svg>
