<svg width="32" height="32" viewBox="0 0 32 32" fill="none" xmlns="http://www.w3.org/2000/svg">
<path opacity="0.3" d="M19.1218 2.19632C19.0116 1.49703 18.2243 1.06611 17.6711 1.52031C13.5613 4.8952 13.0048 11.1699 12.971 13.9438C12.963 14.6003 12.3166 15.0273 11.8182 14.589C11.1748 14.0233 10.4496 13.068 10.1459 11.5174C10.0096 10.8214 9.22243 10.3858 8.65399 10.8232C5.8273 12.9984 4 16.4482 4 20.2284C4 26.7297 9.37258 32 16 32C22.6274 32 28 26.7297 28 20.2284C27.9999 11.3218 20.1954 9.00783 19.1218 2.19632Z" fill="white"/>
<path d="M16.4076 27.8449C13.3559 28.5372 10.265 26.8476 9.50399 24.071C8.74314 21.2945 10.6002 18.4823 13.6521 17.7901C18.4104 16.7107 20.4808 14.7562 21.3505 13.5071C21.5391 13.2363 22.1626 13.2914 22.223 13.6076C22.8696 16.9922 23.885 26.1487 16.4076 27.8449Z" fill="white"/>
</svg>
